<mxfile host="app.diagrams.net" modified="2023-12-21T21:07:22.652Z" agent="Mozilla/5.0 (Windows NT 10.0; Win64; x64) AppleWebKit/537.36 (KHTML, like Gecko) Chrome/120.0.0.0 Safari/537.36" etag="fzeWWr9E-RsDcxaOAIju" version="22.1.11" type="github">
  <diagram name="Page-1" id="bcrgy2V1A3nl696-SFbT">
    <mxGraphModel dx="1221" dy="1707" grid="1" gridSize="10" guides="1" tooltips="1" connect="1" arrows="1" fold="1" page="1" pageScale="1" pageWidth="850" pageHeight="1100" math="0" shadow="0">
      <root>
        <mxCell id="0" />
        <mxCell id="1" parent="0" />
        <mxCell id="cJEIJq32qxbuNJyZ-1aQ-7" style="edgeStyle=orthogonalEdgeStyle;rounded=1;orthogonalLoop=1;jettySize=auto;html=1;labelBackgroundColor=none;strokeColor=#23445D;fontColor=default;" parent="1" source="M_SnaY0nyhzKir-bgs05-1" edge="1">
          <mxGeometry relative="1" as="geometry">
            <mxPoint x="410" y="30" as="targetPoint" />
          </mxGeometry>
        </mxCell>
        <mxCell id="M_SnaY0nyhzKir-bgs05-1" value="Login" style="rounded=1;whiteSpace=wrap;html=1;labelBackgroundColor=none;fillColor=#182E3E;strokeColor=#FFFFFF;fontColor=#FFFFFF;" parent="1" vertex="1">
          <mxGeometry x="350" y="190" width="120" height="60" as="geometry" />
        </mxCell>
        <mxCell id="cJEIJq32qxbuNJyZ-1aQ-4" value="" style="edgeStyle=orthogonalEdgeStyle;rounded=1;orthogonalLoop=1;jettySize=auto;html=1;labelBackgroundColor=none;strokeColor=#23445D;fontColor=default;" parent="1" source="M_SnaY0nyhzKir-bgs05-6" target="M_SnaY0nyhzKir-bgs05-1" edge="1">
          <mxGeometry relative="1" as="geometry" />
        </mxCell>
        <mxCell id="M_SnaY0nyhzKir-bgs05-6" value="Dashboard" style="rounded=1;whiteSpace=wrap;html=1;labelBackgroundColor=none;fillColor=#182E3E;strokeColor=#FFFFFF;fontColor=#FFFFFF;" parent="1" vertex="1">
          <mxGeometry x="350" y="320" width="120" height="60" as="geometry" />
        </mxCell>
        <mxCell id="M_SnaY0nyhzKir-bgs05-14" style="edgeStyle=orthogonalEdgeStyle;rounded=1;orthogonalLoop=1;jettySize=auto;html=1;entryX=0.25;entryY=0;entryDx=0;entryDy=0;strokeColor=#23445D;labelBackgroundColor=none;fontColor=default;" parent="1" source="M_SnaY0nyhzKir-bgs05-8" target="M_SnaY0nyhzKir-bgs05-16" edge="1">
          <mxGeometry relative="1" as="geometry">
            <mxPoint x="700" y="160" as="targetPoint" />
          </mxGeometry>
        </mxCell>
        <mxCell id="M_SnaY0nyhzKir-bgs05-8" value="Forget password" style="rounded=1;whiteSpace=wrap;html=1;labelBackgroundColor=none;fillColor=#182E3E;strokeColor=#FFFFFF;fontColor=#FFFFFF;" parent="1" vertex="1">
          <mxGeometry x="350" y="-40" width="120" height="60" as="geometry" />
        </mxCell>
        <mxCell id="cJEIJq32qxbuNJyZ-1aQ-5" style="edgeStyle=orthogonalEdgeStyle;rounded=1;orthogonalLoop=1;jettySize=auto;html=1;labelBackgroundColor=none;strokeColor=#23445D;fontColor=default;" parent="1" source="M_SnaY0nyhzKir-bgs05-12" edge="1">
          <mxGeometry relative="1" as="geometry">
            <mxPoint x="480" y="220" as="targetPoint" />
          </mxGeometry>
        </mxCell>
        <mxCell id="M_SnaY0nyhzKir-bgs05-12" value="Changed password" style="rounded=1;whiteSpace=wrap;html=1;labelBackgroundColor=none;fillColor=#182E3E;strokeColor=#FFFFFF;fontColor=#FFFFFF;" parent="1" vertex="1">
          <mxGeometry x="530" y="190" width="110" height="60" as="geometry" />
        </mxCell>
        <mxCell id="hLSNamRF64FyMxwMzuBi-2" style="edgeStyle=orthogonalEdgeStyle;rounded=0;orthogonalLoop=1;jettySize=auto;html=1;" edge="1" parent="1" source="M_SnaY0nyhzKir-bgs05-16">
          <mxGeometry relative="1" as="geometry">
            <mxPoint x="600" y="180" as="targetPoint" />
          </mxGeometry>
        </mxCell>
        <mxCell id="M_SnaY0nyhzKir-bgs05-16" value="Verify otp" style="rounded=1;whiteSpace=wrap;html=1;labelBackgroundColor=none;fillColor=#182E3E;strokeColor=#FFFFFF;fontColor=#FFFFFF;" parent="1" vertex="1">
          <mxGeometry x="540" y="80" width="120" height="40" as="geometry" />
        </mxCell>
        <mxCell id="cJEIJq32qxbuNJyZ-1aQ-8" style="edgeStyle=orthogonalEdgeStyle;rounded=1;orthogonalLoop=1;jettySize=auto;html=1;labelBackgroundColor=none;strokeColor=#23445D;fontColor=default;" parent="1" source="M_SnaY0nyhzKir-bgs05-24" edge="1">
          <mxGeometry relative="1" as="geometry">
            <mxPoint x="340" y="220" as="targetPoint" />
          </mxGeometry>
        </mxCell>
        <mxCell id="M_SnaY0nyhzKir-bgs05-24" value="" style="shape=actor;whiteSpace=wrap;html=1;labelBackgroundColor=none;fillColor=#182E3E;strokeColor=#FFFFFF;fontColor=#FFFFFF;rounded=1;" parent="1" vertex="1">
          <mxGeometry x="130" y="190" width="40" height="60" as="geometry" />
        </mxCell>
        <mxCell id="M_SnaY0nyhzKir-bgs05-28" value="&lt;font style=&quot;font-size: 15px;&quot; color=&quot;#0d0d0d&quot;&gt;Student / Teacher&lt;/font&gt;" style="text;html=1;align=center;verticalAlign=middle;resizable=0;points=[];autosize=1;strokeColor=none;fillColor=none;fontStyle=1;labelBackgroundColor=none;fontColor=#FFFFFF;rounded=1;" parent="1" vertex="1">
          <mxGeometry x="75" y="160" width="150" height="30" as="geometry" />
        </mxCell>
        <mxCell id="cJEIJq32qxbuNJyZ-1aQ-35" value="&lt;b style=&quot;font-size: 25px;&quot;&gt;Module # 1&lt;br&gt;Authtication&lt;/b&gt;" style="rounded=0;whiteSpace=wrap;html=1;" parent="1" vertex="1">
          <mxGeometry x="275" y="-130" width="300" height="60" as="geometry" />
        </mxCell>
        <mxCell id="cJEIJq32qxbuNJyZ-1aQ-36" value="Student / Teacher" style="text;html=1;align=center;verticalAlign=middle;resizable=0;points=[];autosize=1;strokeColor=none;fillColor=none;fontStyle=1;labelBackgroundColor=none;fontColor=#FFFFFF;rounded=1;" parent="1" vertex="1">
          <mxGeometry x="90" y="50" width="120" height="30" as="geometry" />
        </mxCell>
      </root>
    </mxGraphModel>
  </diagram>
</mxfile>
